<?xml version="1.0" encoding="UTF-8"?>
<svg xmlns="http://www.w3.org/2000/svg" xmlns:xlink="http://www.w3.org/1999/xlink" viewBox="0 0 96 96" width="96px" height="96px">
<g id="surface139391437">
<path style="fill-rule:nonzero;fill:rgb(90.196079%,31.764707%,0%);fill-opacity:1;stroke-width:6;stroke-linecap:butt;stroke-linejoin:round;stroke:rgb(0%,0%,0%);stroke-opacity:1;stroke-miterlimit:10;" d="M 146.9162 17.918463 L 136.164577 139.750866 L 85.999998 154.081533 L 35.835419 139.750866 L 25.083796 17.918463 Z M 146.9162 17.918463 " transform="matrix(0.539163,0,0,0.539163,1.632,1.632)"/>
<path style="fill-rule:nonzero;fill:rgb(100%,42.745098%,0%);fill-opacity:1;stroke-width:6;stroke-linecap:butt;stroke-linejoin:round;stroke:rgb(0%,0%,0%);stroke-opacity:1;stroke-miterlimit:10;" d="M 135.092313 28.670086 L 126.130212 131.506024 L 85.999998 142.974904 L 85.999998 28.670086 Z M 135.092313 28.670086 " transform="matrix(0.539163,0,0,0.539163,1.632,1.632)"/>
<path style="fill-rule:nonzero;fill:rgb(100%,100%,100%);fill-opacity:1;stroke-width:6;stroke-linecap:butt;stroke-linejoin:round;stroke:rgb(0%,0%,0%);stroke-opacity:1;stroke-miterlimit:10;" d="M 85.999998 89.586287 L 85.999998 75.248375 L 116.813105 75.248375 L 114.306325 116.458099 L 85.999998 125.775206 L 85.999998 110.727281 L 100.692916 105.706476 L 101.765181 89.586287 Z M 85.999998 60.917709 L 85.999998 46.579797 L 118.964879 46.579797 L 117.892615 60.917709 Z M 85.999998 60.917709 " transform="matrix(0.539163,0,0,0.539163,1.632,1.632)"/>
<path style="fill-rule:nonzero;fill:rgb(93.333334%,93.333334%,93.333334%);fill-opacity:1;stroke-width:6;stroke-linecap:butt;stroke-linejoin:round;stroke:rgb(0%,0%,0%);stroke-opacity:1;stroke-miterlimit:10;" d="M 85.999998 110.727281 L 85.999998 125.775206 L 57.693671 116.458099 L 56.259155 96.751621 L 70.589822 96.751621 L 71.30708 105.706476 Z M 69.517558 75.248375 L 85.999998 75.248375 L 85.999998 89.586287 L 55.896904 89.586287 L 53.390124 46.579797 L 85.999998 46.579797 L 85.999998 60.917709 L 68.438048 60.917709 Z M 69.517558 75.248375 " transform="matrix(0.539163,0,0,0.539163,1.632,1.632)"/>
<path style=" stroke:none;fill-rule:nonzero;fill:rgb(90.196079%,31.764707%,0%);fill-opacity:1;" d="M 80.84375 11.292969 L 15.15625 11.292969 L 20.953125 76.980469 L 48 84.707031 L 75.046875 76.980469 Z M 80.84375 11.292969 "/>
<path style=" stroke:none;fill-rule:nonzero;fill:rgb(100%,42.745098%,0%);fill-opacity:1;" d="M 48 17.089844 L 48 78.71875 L 69.636719 72.535156 L 74.46875 17.089844 Z M 48 17.089844 "/>
<path style=" stroke:none;fill-rule:nonzero;fill:rgb(100%,100%,100%);fill-opacity:1;" d="M 48 49.933594 L 48 42.203125 L 64.613281 42.203125 L 63.261719 64.421875 L 48 69.445312 L 48 61.332031 L 55.921875 58.625 L 56.5 49.933594 Z M 65.195312 34.476562 L 65.773438 26.746094 L 48 26.746094 L 48 34.476562 Z M 65.195312 34.476562 "/>
<path style=" stroke:none;fill-rule:nonzero;fill:rgb(93.333334%,93.333334%,93.333334%);fill-opacity:1;" d="M 48 61.332031 L 48 69.445312 L 32.738281 64.421875 L 31.964844 53.796875 L 39.691406 53.796875 L 40.078125 58.625 Z M 38.53125 34.476562 L 48 34.476562 L 48 26.746094 L 30.417969 26.746094 L 31.769531 49.933594 L 48 49.933594 L 48 42.203125 L 39.113281 42.203125 Z M 38.53125 34.476562 "/>
</g>
</svg>
