<?xml version="1.0" encoding="UTF-8"?>
<svg xmlns="http://www.w3.org/2000/svg" xmlns:xlink="http://www.w3.org/1999/xlink" viewBox="0 0 96 96" width="96px" height="96px">
<g id="surface143807322">
<path style="fill-rule:nonzero;fill:rgb(100%,83.92157%,0%);fill-opacity:1;stroke-width:2;stroke-linecap:butt;stroke-linejoin:round;stroke:rgb(0%,0%,0%);stroke-opacity:1;stroke-miterlimit:10;" d="M 21.497339 150.502657 L 21.497339 21.497339 L 150.502657 21.497339 L 150.502657 150.502657 Z M 21.497339 150.502657 " transform="matrix(0.552,0,0,0.552,0.528,0.528)"/>
<path style="fill-rule:nonzero;fill:rgb(0%,0%,0.392157%);fill-opacity:1;stroke-width:2;stroke-linecap:butt;stroke-linejoin:round;stroke:rgb(0%,0%,0%);stroke-opacity:1;stroke-miterlimit:10;" d="M 105.842615 118.056723 C 108.326481 122.090351 111.015566 125.947065 116.726333 125.947065 C 121.524227 125.947065 124.036399 123.562271 124.036399 120.264603 C 124.036399 116.322971 121.432232 114.921816 116.16021 112.62194 L 113.265906 111.390622 C 104.922665 107.852353 99.374658 103.415362 99.374658 94.046024 C 99.374658 85.405569 105.984146 78.83854 116.315894 78.83854 C 123.668419 78.83854 128.954594 81.386094 132.768849 88.059271 L 123.760414 93.812498 C 121.778983 90.274228 119.634791 88.88015 116.315894 88.88015 C 112.926232 88.88015 110.78204 91.017265 110.78204 93.812498 C 110.78204 97.272926 112.926232 98.667004 117.893962 100.804119 L 120.781191 102.042514 C 130.617581 106.224749 136.165588 110.506055 136.165588 120.123072 C 136.165588 130.490203 127.985108 136.165588 116.995242 136.165588 C 106.245978 136.165588 100.146001 130.773265 96.749262 124.100088 Z M 64.324557 118.353938 C 66.143228 121.602069 68.896002 124.100088 72.858864 124.100088 C 76.651889 124.100088 78.831463 122.599861 78.831463 116.775869 L 78.831463 78.831463 L 90.776662 78.831463 L 90.776662 118.608693 C 90.776662 130.674193 83.777965 136.165588 73.559441 136.165588 C 64.324557 136.165588 57.658457 129.909927 54.941065 124.100088 Z M 64.324557 118.353938 " transform="matrix(0.552,0,0,0.552,0.528,0.528)"/>
<path style=" stroke:none;fill-rule:nonzero;fill:rgb(100%,83.92157%,0%);fill-opacity:1;" d="M 12.394531 83.605469 L 12.394531 12.394531 L 83.605469 12.394531 L 83.605469 83.605469 Z M 12.394531 83.605469 "/>
<path style=" stroke:none;fill-rule:nonzero;fill:rgb(0%,0%,0.392157%);fill-opacity:1;" d="M 58.953125 65.695312 C 60.324219 67.921875 61.808594 70.050781 64.960938 70.050781 C 67.609375 70.050781 68.996094 68.734375 68.996094 66.914062 C 68.996094 64.738281 67.558594 63.964844 64.648438 62.695312 L 63.050781 62.015625 C 58.445312 60.0625 55.382812 57.613281 55.382812 52.441406 C 55.382812 47.671875 59.03125 44.046875 64.734375 44.046875 C 68.792969 44.046875 71.710938 45.453125 73.816406 49.136719 L 68.84375 52.3125 C 67.75 50.359375 66.566406 49.589844 64.734375 49.589844 C 62.863281 49.589844 61.679688 50.769531 61.679688 52.3125 C 61.679688 54.222656 62.863281 54.992188 65.605469 56.171875 L 67.199219 56.855469 C 72.628906 59.164062 75.691406 61.527344 75.691406 66.835938 C 75.691406 72.558594 71.175781 75.691406 65.109375 75.691406 C 59.175781 75.691406 55.808594 72.714844 53.933594 69.03125 Z M 36.035156 65.859375 C 37.039062 67.652344 38.558594 69.03125 40.746094 69.03125 C 42.839844 69.03125 44.042969 68.203125 44.042969 64.988281 L 44.042969 44.042969 L 50.636719 44.042969 L 50.636719 66 C 50.636719 72.660156 46.773438 75.691406 41.132812 75.691406 C 36.035156 75.691406 32.355469 72.238281 30.855469 69.03125 Z M 36.035156 65.859375 "/>
</g>
</svg>
