<?xml version="1.0" encoding="UTF-8"?>
<svg xmlns="http://www.w3.org/2000/svg" xmlns:xlink="http://www.w3.org/1999/xlink" viewBox="0 0 96 96" width="96px" height="96px">
<g id="surface139389973">
<path style="fill-rule:nonzero;fill:rgb(21.960784%,55.686277%,23.529412%);fill-opacity:1;stroke-width:2;stroke-linecap:butt;stroke-linejoin:round;stroke:rgb(0%,0%,0%);stroke-opacity:1;stroke-miterlimit:10;" d="M 61.642548 68.520945 C 61.975146 68.336955 62.336049 68.24496 62.711106 68.24496 C 63.072009 68.24496 63.43999 68.336955 63.772587 68.520945 L 81.350711 78.251187 C 82.00883 78.612091 82.419269 79.284362 82.419269 80.013245 L 82.419269 99.480806 C 82.419269 100.20969 82.00883 100.874885 81.357788 101.242865 L 63.779663 110.980183 C 63.121545 111.341087 62.307743 111.341087 61.649625 110.980183 L 44.064424 101.242865 C 43.406306 100.874885 43.002943 100.20969 43.002943 99.480806 L 43.002943 80.013245 C 43.002943 79.284362 43.406306 78.612091 44.064424 78.251187 L 61.649625 68.520945 M 152.116108 86.049534 C 152.172721 86.014151 152.229333 85.999998 152.293022 85.999998 C 152.349634 85.999998 152.413323 86.014151 152.469935 86.049534 L 155.399623 87.662985 C 155.512847 87.726674 155.576536 87.839898 155.576536 87.9602 L 155.576536 91.208331 C 155.576536 91.328632 155.512847 91.441857 155.399623 91.498469 L 152.469935 93.126074 C 152.356711 93.182686 152.229333 93.182686 152.116108 93.126074 L 149.186421 91.498469 C 149.080273 91.441857 149.009508 91.328632 149.009508 91.208331 L 149.009508 87.9602 C 149.009508 87.839898 149.073196 87.726674 149.186421 87.662985 L 152.116108 86.049534 " transform="matrix(0.552,0,0,0.552,0.528,0.528)"/>
<path style="fill-rule:nonzero;fill:rgb(21.568628%,27.843139%,30.980393%);fill-opacity:1;stroke-width:2;stroke-linecap:butt;stroke-linejoin:round;stroke:rgb(0%,0%,0%);stroke-opacity:1;stroke-miterlimit:10;" d="M 128.997053 49.407211 L 128.997053 99.310969 C 128.997053 100.039853 128.59369 100.712124 127.942649 101.073028 L 110.357448 110.810346 C 109.706406 111.17125 108.892604 111.17125 108.234486 110.810346 L 90.649285 101.073028 C 89.991166 100.712124 89.580727 100.039853 89.580727 99.310969 L 89.580727 79.843409 C 89.580727 79.121601 89.991166 78.44933 90.649285 78.08135 L 108.234486 68.358185 L 108.227409 68.358185 C 108.560007 68.174195 108.927987 68.0822 109.28889 68.0822 C 109.65687 68.0822 110.02485 68.174195 110.357448 68.358185 L 118.247789 72.72441 L 118.254866 43.873357 C 118.254866 43.56199 118.417626 43.278928 118.686535 43.123244 C 118.948367 42.96756 119.280964 42.960484 119.549873 43.109091 L 128.105409 47.885755 C 128.657379 48.197123 128.997053 48.777399 128.997053 49.407211 Z M 118.247789 94.010641 L 118.247789 85.15789 C 118.247789 84.825292 118.063799 84.521001 117.766585 84.351164 L 109.777171 79.928327 C 109.621488 79.850485 109.458727 79.808026 109.28889 79.808026 C 109.12613 79.808026 108.956293 79.850485 108.807686 79.928327 L 108.814762 79.928327 L 100.818272 84.351164 C 100.513981 84.521001 100.329991 84.825292 100.329991 85.150813 L 100.329991 94.003564 C 100.329991 94.336162 100.513981 94.640453 100.818272 94.81029 L 108.814762 99.233127 C 109.111977 99.395888 109.479957 99.395888 109.777171 99.233127 L 117.766585 94.81029 C 118.063799 94.640453 118.247789 94.336162 118.247789 94.010641 Z M 118.247789 94.010641 " transform="matrix(0.552,0,0,0.552,0.528,0.528)"/>
<path style="fill-rule:nonzero;fill:rgb(18.039216%,49.019608%,19.607843%);fill-opacity:1;stroke-width:2;stroke-linecap:butt;stroke-linejoin:round;stroke:rgb(0%,0%,0%);stroke-opacity:1;stroke-miterlimit:10;" d="M 61.642548 68.520945 C 61.975146 68.336955 62.336049 68.24496 62.711106 68.24496 C 63.072009 68.24496 63.43999 68.336955 63.772587 68.520945 L 81.350711 78.251187 C 82.00883 78.612091 82.419269 79.284362 82.419269 80.013245 L 63.779663 110.980183 C 63.121545 111.341087 62.307743 111.341087 61.649625 110.980183 L 44.064424 101.242865 C 43.406306 100.874885 43.002943 100.20969 43.002943 99.480806 L 61.649625 68.520945 " transform="matrix(0.552,0,0,0.552,0.528,0.528)"/>
<path style="fill-rule:nonzero;fill:rgb(29.803923%,68.627453%,31.37255%);fill-opacity:1;stroke-width:2;stroke-linecap:butt;stroke-linejoin:round;stroke:rgb(0%,0%,0%);stroke-opacity:1;stroke-miterlimit:10;" d="M 61.642548 68.520945 C 61.975146 68.336955 62.336049 68.24496 62.711106 68.24496 C 63.072009 68.24496 63.43999 68.336955 63.772587 68.520945 L 82.419269 99.480806 C 82.419269 100.20969 82.00883 100.874885 81.357788 101.242865 L 63.772587 110.980183 C 63.114469 111.341087 62.300667 111.341087 61.649625 110.980183 L 43.002943 80.013245 C 43.002943 79.284362 43.406306 78.612091 44.064424 78.251187 L 61.649625 68.520945 " transform="matrix(0.552,0,0,0.552,0.528,0.528)"/>
<path style="fill-rule:nonzero;fill:rgb(21.568628%,27.843139%,30.980393%);fill-opacity:1;stroke-width:2;stroke-linecap:butt;stroke-linejoin:round;stroke:rgb(0%,0%,0%);stroke-opacity:1;stroke-miterlimit:10;" d="M 172.001185 79.892944 L 172.001185 86.62981 C 172.001185 87.245469 171.668588 87.818669 171.137847 88.12296 L 162.546928 93.118997 C 162.278019 93.267604 161.945422 93.267604 161.676514 93.118997 C 161.414682 92.963313 161.244845 92.680252 161.244845 92.368884 L 161.244845 85.164966 C 161.244845 84.832369 161.067931 84.528078 160.777793 84.372394 L 152.774227 79.935404 C 152.618543 79.857562 152.455782 79.815102 152.285945 79.815102 C 152.123185 79.815102 151.953348 79.857562 151.804741 79.935404 L 143.801174 84.365317 C 143.511036 84.521001 143.334123 84.825292 143.334123 85.15789 L 143.334123 93.996488 C 143.334123 94.329085 143.518113 94.640453 143.815327 94.81029 L 161.464217 104.441461 C 162.207254 104.844823 162.207254 105.913381 161.471294 106.32382 L 153.361579 110.817423 C 152.703461 111.178326 151.896736 111.178326 151.231541 110.817423 L 133.64634 101.080104 C 132.995298 100.719201 132.584859 100.0257 132.584859 99.275587 L 132.584859 79.885868 C 132.584859 79.135755 132.995298 78.44933 133.64634 78.08135 L 151.231541 68.358185 L 151.224464 68.358185 C 151.557062 68.174195 151.925042 68.0822 152.293022 68.0822 C 152.653925 68.0822 153.028982 68.174195 153.354503 68.358185 L 170.932627 78.08135 C 171.590746 78.44933 172.001185 79.135755 172.001185 79.892944 Z M 39.415137 79.892944 L 39.415137 106.635188 C 39.415137 106.946556 39.252377 107.229617 38.983468 107.392378 C 38.71456 107.540985 38.389039 107.540985 38.12013 107.385301 L 29.529211 102.396341 C 28.991394 102.084973 28.665873 101.51885 28.665873 100.896114 L 28.665873 85.15789 C 28.665873 84.825292 28.48896 84.521001 28.198822 84.365317 L 20.195255 79.935404 C 20.039572 79.857562 19.876811 79.815102 19.706974 79.815102 C 19.537137 79.815102 19.374377 79.850485 19.22577 79.935404 L 11.215127 84.365317 C 10.932065 84.521001 10.748075 84.825292 10.748075 85.150813 L 10.748075 100.896114 C 10.748075 101.511773 10.422554 102.084973 9.891814 102.389264 L 1.300894 107.378224 C 1.031986 107.533908 0.699389 107.533908 0.43048 107.385301 C 0.161572 107.229617 -0.00118884 106.946556 -0.00118884 106.635188 L -0.00118884 79.885868 C -0.00118884 79.135755 0.40925 78.44933 1.067369 78.08135 L 18.645493 68.358185 C 18.971014 68.174195 19.346071 68.0822 19.706974 68.0822 C 20.074954 68.0822 20.442934 68.174195 20.775532 68.358185 L 38.353656 78.08135 C 39.004698 78.44933 39.415137 79.135755 39.415137 79.892944 Z M 39.415137 79.892944 " transform="matrix(0.552,0,0,0.552,0.528,0.528)"/>
<path style=" stroke:none;fill-rule:nonzero;fill:rgb(21.960784%,55.686277%,23.529412%);fill-opacity:1;" d="M 34.558594 38.351562 L 24.851562 43.722656 C 24.488281 43.921875 24.265625 44.292969 24.265625 44.695312 L 24.265625 55.441406 C 24.265625 55.84375 24.488281 56.210938 24.851562 56.414062 L 34.558594 61.789062 C 34.921875 61.988281 35.371094 61.988281 35.734375 61.789062 L 45.4375 56.414062 C 45.796875 56.210938 46.023438 55.84375 46.023438 55.441406 L 46.023438 44.695312 C 46.023438 44.292969 45.796875 43.921875 45.433594 43.722656 L 35.730469 38.351562 C 35.546875 38.25 35.34375 38.199219 35.144531 38.199219 C 34.9375 38.199219 34.738281 38.25 34.554688 38.351562 M 84.496094 48.027344 L 82.878906 48.917969 C 82.816406 48.953125 82.78125 49.015625 82.78125 49.082031 L 82.78125 50.875 C 82.78125 50.941406 82.820312 51.003906 82.878906 51.035156 L 84.496094 51.933594 C 84.558594 51.964844 84.628906 51.964844 84.691406 51.933594 L 86.308594 51.035156 C 86.371094 51.003906 86.40625 50.941406 86.40625 50.875 L 86.40625 49.082031 C 86.40625 49.015625 86.371094 48.953125 86.308594 48.917969 L 84.691406 48.027344 C 84.660156 48.007812 84.625 48 84.59375 48 C 84.558594 48 84.527344 48.007812 84.496094 48.027344 "/>
<path style=" stroke:none;fill-rule:nonzero;fill:rgb(21.568628%,27.843139%,30.980393%);fill-opacity:1;" d="M 71.242188 26.960938 L 66.519531 24.324219 C 66.371094 24.242188 66.1875 24.246094 66.042969 24.332031 C 65.894531 24.417969 65.804688 24.574219 65.804688 24.746094 L 65.800781 40.671875 L 61.445312 38.261719 C 61.261719 38.160156 61.058594 38.109375 60.855469 38.109375 C 60.65625 38.109375 60.453125 38.160156 60.269531 38.261719 L 60.273438 38.261719 L 50.566406 43.628906 C 50.203125 43.832031 49.976562 44.203125 49.976562 44.601562 L 49.976562 55.347656 C 49.976562 55.75 50.203125 56.121094 50.566406 56.320312 L 60.273438 61.695312 C 60.636719 61.894531 61.085938 61.894531 61.445312 61.695312 L 71.152344 56.320312 C 71.511719 56.121094 71.734375 55.75 71.734375 55.347656 L 71.734375 27.800781 C 71.734375 27.453125 71.546875 27.132812 71.242188 26.960938 Z M 65.535156 52.863281 L 61.125 55.304688 C 60.960938 55.394531 60.757812 55.394531 60.59375 55.304688 L 56.179688 52.863281 C 56.011719 52.769531 55.910156 52.601562 55.910156 52.417969 L 55.910156 47.53125 C 55.910156 47.351562 56.011719 47.183594 56.179688 47.089844 L 60.59375 44.648438 L 60.589844 44.648438 C 60.671875 44.605469 60.765625 44.582031 60.855469 44.582031 C 60.949219 44.582031 61.039062 44.605469 61.125 44.648438 L 65.535156 47.089844 C 65.699219 47.183594 65.800781 47.351562 65.800781 47.535156 L 65.800781 52.421875 C 65.800781 52.601562 65.699219 52.769531 65.535156 52.863281 Z M 65.535156 52.863281 "/>
<path style=" stroke:none;fill-rule:nonzero;fill:rgb(18.039216%,49.019608%,19.607843%);fill-opacity:1;" d="M 34.558594 38.351562 L 24.265625 55.441406 C 24.265625 55.84375 24.488281 56.210938 24.851562 56.414062 L 34.558594 61.789062 C 34.921875 61.988281 35.371094 61.988281 35.734375 61.789062 L 46.023438 44.695312 C 46.023438 44.292969 45.796875 43.921875 45.433594 43.722656 L 35.730469 38.351562 C 35.546875 38.25 35.34375 38.199219 35.144531 38.199219 C 34.9375 38.199219 34.738281 38.25 34.554688 38.351562 "/>
<path style=" stroke:none;fill-rule:nonzero;fill:rgb(29.803923%,68.627453%,31.37255%);fill-opacity:1;" d="M 34.558594 38.351562 L 24.851562 43.722656 C 24.488281 43.921875 24.265625 44.292969 24.265625 44.695312 L 34.558594 61.789062 C 34.917969 61.988281 35.367188 61.988281 35.730469 61.789062 L 45.4375 56.414062 C 45.796875 56.210938 46.023438 55.84375 46.023438 55.441406 L 35.730469 38.351562 C 35.546875 38.25 35.34375 38.199219 35.144531 38.199219 C 34.9375 38.199219 34.738281 38.25 34.554688 38.351562 "/>
<path style=" stroke:none;fill-rule:nonzero;fill:rgb(21.568628%,27.843139%,30.980393%);fill-opacity:1;" d="M 94.882812 43.628906 L 85.179688 38.261719 C 85 38.160156 84.792969 38.109375 84.59375 38.109375 C 84.390625 38.109375 84.1875 38.160156 84.003906 38.261719 L 84.007812 38.261719 L 74.300781 43.628906 C 73.941406 43.832031 73.714844 44.210938 73.714844 44.625 L 73.714844 55.328125 C 73.714844 55.742188 73.941406 56.125 74.300781 56.324219 L 84.007812 61.699219 C 84.375 61.898438 84.820312 61.898438 85.183594 61.699219 L 89.660156 59.21875 C 90.066406 58.992188 90.066406 58.402344 89.65625 58.179688 L 79.914062 52.863281 C 79.75 52.769531 79.648438 52.597656 79.648438 52.414062 L 79.648438 47.535156 C 79.648438 47.351562 79.746094 47.183594 79.90625 47.097656 L 84.324219 44.652344 C 84.40625 44.609375 84.5 44.585938 84.589844 44.585938 C 84.683594 44.585938 84.773438 44.609375 84.859375 44.652344 L 89.277344 47.101562 C 89.4375 47.1875 89.535156 47.355469 89.535156 47.539062 L 89.535156 51.515625 C 89.535156 51.6875 89.628906 51.84375 89.773438 51.929688 C 89.921875 52.011719 90.105469 52.011719 90.253906 51.929688 L 94.996094 49.171875 C 95.289062 49.003906 95.472656 48.6875 95.472656 48.347656 L 95.472656 44.628906 C 95.472656 44.210938 95.246094 43.832031 94.882812 43.628906 Z M 21.699219 43.628906 L 11.996094 38.261719 C 11.8125 38.160156 11.609375 38.109375 11.40625 38.109375 C 11.207031 38.109375 11 38.160156 10.820312 38.261719 L 1.117188 43.628906 C 0.753906 43.832031 0.527344 44.210938 0.527344 44.625 L 0.527344 59.390625 C 0.527344 59.5625 0.617188 59.71875 0.765625 59.804688 C 0.914062 59.886719 1.097656 59.886719 1.246094 59.800781 L 5.988281 57.046875 C 6.28125 56.878906 6.460938 56.5625 6.460938 56.222656 L 6.460938 47.53125 C 6.460938 47.351562 6.5625 47.183594 6.71875 47.097656 L 11.140625 44.652344 C 11.222656 44.605469 11.3125 44.585938 11.40625 44.585938 C 11.5 44.585938 11.589844 44.609375 11.675781 44.652344 L 16.09375 47.097656 C 16.253906 47.183594 16.351562 47.351562 16.351562 47.535156 L 16.351562 56.222656 C 16.351562 56.566406 16.53125 56.878906 16.828125 57.050781 L 21.570312 59.804688 C 21.71875 59.890625 21.898438 59.890625 22.046875 59.808594 C 22.195312 59.71875 22.285156 59.5625 22.285156 59.390625 L 22.285156 44.628906 C 22.285156 44.210938 22.058594 43.832031 21.699219 43.628906 Z M 21.699219 43.628906 "/>
</g>
</svg>
