<?xml version="1.0" encoding="UTF-8"?>
<svg xmlns="http://www.w3.org/2000/svg" xmlns:xlink="http://www.w3.org/1999/xlink" viewBox="0 0 96 96" width="96px" height="96px">
<g id="surface139393914">
<path style="fill-rule:nonzero;fill:rgb(0.784314%,46.666667%,74.117649%);fill-opacity:1;stroke-width:4;stroke-linecap:butt;stroke-linejoin:round;stroke:rgb(0%,0%,0%);stroke-opacity:1;stroke-miterlimit:10;" d="M 97.984464 19.22225 C 106.795517 20.690759 113.09936 27.223832 113.09936 35.96325 L 113.09936 66.7303 C 113.09936 75.741929 104.223836 82.418271 95.183553 82.418271 L 69.251837 82.418271 C 58.227276 82.418271 48.599589 92.912737 48.599589 103.543307 L 48.599589 121.831614 L 35.583587 121.831614 C 26.134986 121.831614 20.96297 114.682484 18.620519 105.147922 C 15.525906 92.36115 15.662011 84.696251 18.620519 72.453902 C 21.235181 61.78035 29.501811 57.331843 38.950412 57.331843 L 88.012932 57.331843 L 88.012932 50.168386 L 55.763046 50.168386 L 55.763046 35.96325 C 55.763046 26.672246 58.27742 21.629171 72.067075 19.229413 C 76.730486 18.427106 80.598753 17.932827 86.171923 17.918501 C 91.694949 17.89701 98.206532 19.200759 97.984464 19.22225 Z M 62.933667 37.632335 C 62.933667 40.619497 65.311935 42.997765 68.30626 42.997765 C 71.250441 42.997765 73.686017 40.619497 73.686017 37.632335 C 73.686017 34.673827 71.250441 32.252579 68.30626 32.252579 C 65.311935 32.252579 62.933667 34.688154 62.933667 37.632335 Z M 62.933667 37.632335 " transform="matrix(0.545302,0,0,0.545302,1.104,1.104)"/>
<path style="fill-rule:nonzero;fill:rgb(100%,75.686276%,2.745098%);fill-opacity:1;stroke-width:4;stroke-linecap:butt;stroke-linejoin:round;stroke:rgb(0%,0%,0%);stroke-opacity:1;stroke-miterlimit:10;" d="M 70.877941 152.77775 C 62.066889 151.309242 55.763046 144.776169 55.763046 136.03675 L 55.763046 105.269701 C 55.763046 96.258071 64.63857 89.581729 73.678853 89.581729 L 99.610569 89.581729 C 110.642294 89.581729 120.262817 79.087264 120.262817 68.456693 L 120.262817 50.168386 L 133.278819 50.168386 C 142.72742 50.168386 147.899436 57.317516 150.24905 66.852078 C 153.343664 79.63885 153.207558 87.303749 150.24905 99.546098 C 147.627225 110.21965 139.360595 114.668157 129.919158 114.668157 L 80.849474 114.668157 L 80.849474 121.831614 L 113.09936 121.831614 L 113.09936 136.03675 C 113.09936 145.327755 110.59215 150.370829 96.802494 152.770587 C 92.13192 153.572894 88.270816 154.067173 82.697646 154.0815 C 77.167457 154.10299 70.663038 152.799241 70.877941 152.77775 Z M 105.935902 134.367665 C 105.935902 131.380503 103.557634 129.002235 100.556146 129.002235 C 97.619128 129.002235 95.183553 131.380503 95.183553 134.367665 C 95.183553 137.326173 97.619128 139.747421 100.556146 139.747421 C 103.557634 139.747421 105.935902 137.311846 105.935902 134.367665 Z M 105.935902 134.367665 " transform="matrix(0.545302,0,0,0.545302,1.104,1.104)"/>
<path style=" stroke:none;fill-rule:nonzero;fill:rgb(0.784314%,46.666667%,74.117649%);fill-opacity:1;" d="M 48.09375 10.875 C 45.054688 10.882812 42.945312 11.152344 40.402344 11.589844 C 32.882812 12.898438 31.511719 15.648438 31.511719 20.714844 L 31.511719 28.460938 L 49.097656 28.460938 L 49.097656 32.367188 L 22.34375 32.367188 C 17.191406 32.367188 12.683594 34.792969 11.257812 40.613281 C 9.644531 47.289062 9.570312 51.46875 11.257812 58.441406 C 12.535156 63.640625 15.355469 67.539062 20.507812 67.539062 L 27.605469 67.539062 L 27.605469 57.566406 C 27.605469 51.769531 32.855469 46.046875 38.867188 46.046875 L 53.007812 46.046875 C 57.9375 46.046875 62.777344 42.40625 62.777344 37.492188 L 62.777344 20.714844 C 62.777344 15.949219 59.339844 12.386719 54.535156 11.585938 C 54.65625 11.574219 51.105469 10.863281 48.09375 10.875 Z M 38.351562 18.691406 C 39.957031 18.691406 41.285156 20.011719 41.285156 21.625 C 41.285156 23.253906 39.957031 24.550781 38.351562 24.550781 C 36.71875 24.550781 35.421875 23.253906 35.421875 21.625 C 35.421875 20.019531 36.71875 18.691406 38.351562 18.691406 Z M 38.351562 18.691406 "/>
<path style=" stroke:none;fill-rule:nonzero;fill:rgb(100%,75.686276%,2.745098%);fill-opacity:1;" d="M 46.199219 85.125 C 49.238281 85.117188 51.34375 84.847656 53.890625 84.410156 C 61.410156 83.101562 62.777344 80.351562 62.777344 75.285156 L 62.777344 67.539062 L 45.191406 67.539062 L 45.191406 63.632812 L 71.949219 63.632812 C 77.097656 63.632812 81.605469 61.207031 83.035156 55.386719 C 84.648438 48.710938 84.722656 44.53125 83.035156 37.558594 C 81.753906 32.359375 78.933594 28.460938 73.78125 28.460938 L 66.683594 28.460938 L 66.683594 38.433594 C 66.683594 44.230469 61.4375 49.953125 55.421875 49.953125 L 41.28125 49.953125 C 36.351562 49.953125 31.511719 53.59375 31.511719 58.507812 L 31.511719 75.285156 C 31.511719 80.050781 34.949219 83.613281 39.753906 84.414062 C 39.636719 84.425781 43.183594 85.136719 46.199219 85.125 Z M 55.9375 77.308594 C 54.335938 77.308594 53.007812 75.988281 53.007812 74.375 C 53.007812 72.746094 54.335938 71.449219 55.9375 71.449219 C 57.574219 71.449219 58.871094 72.746094 58.871094 74.375 C 58.871094 75.980469 57.574219 77.308594 55.9375 77.308594 Z M 55.9375 77.308594 "/>
</g>
</svg>
